# xmcd
#
# Track frame offsets:
#	150
#	14043
#	30574
#	45762
#	65184
#	84818
#	103719
#	128829
#	154066
#	169770
#	183584
#
# Disc length: 2734 seconds
#
# Revision: 1
# Processed by: cddbd v1.5.2PL0 Copyright (c) Steve Scherf et al.
# Submitted via: audiograbber 1.83.01
#
DISCID=870aac0b
DTITLE=Zero Illusions - Enter Eternity
DYEAR=2009
DGENRE=Rock
TTITLE0=My belief
TTITLE1=Don't be afraid
TTITLE2=Am I too old
TTITLE3=Face of the fortune
TTITLE4=The way I live
TTITLE5=Make this complete
TTITLE6=Left alone
TTITLE7=Once in my life
TTITLE8=What remains
TTITLE9=Like yourself
TTITLE10=The moment I fear
EXTD=
EXTT0=
EXTT1=
EXTT2=
EXTT3=
EXTT4=
EXTT5=
EXTT6=
EXTT7=
EXTT8=
EXTT9=
EXTT10=
PLAYORDER=
